<svg xmlns="http://www.w3.org/2000/svg" viewBox="0 0 214.39 51.59"><defs><style>.cls-1{fill:#fff;}.cls-2{fill:#d72027;}</style></defs><g id="Layer_2" data-name="Layer 2"><g id="Layer_1-2" data-name="Layer 1"><path class="cls-1" d="M205.51,9.83v5.86h7.88v3.72h-7.88v6.2h8.88v3.82H200.82V6h13.57V9.83Z"/><path class="cls-1" d="M75.55,19.41a5.77,5.77,0,0,1,1.28,3.69,5.9,5.9,0,0,1-.93,3.3,6.13,6.13,0,0,1-2.66,2.23,9.83,9.83,0,0,1-4.12.8H59V6.05h9.64a9.92,9.92,0,0,1,4.11.77A5.77,5.77,0,0,1,75.4,9a5.63,5.63,0,0,1,.89,3.12,5.28,5.28,0,0,1-1.09,3.41,5.82,5.82,0,0,1-2.9,2A5.23,5.23,0,0,1,75.55,19.41ZM63.73,15.69H68a3.93,3.93,0,0,0,2.58-.75,2.63,2.63,0,0,0,.91-2.16,2.7,2.7,0,0,0-.91-2.18A3.88,3.88,0,0,0,68,9.83H63.73Zm7.38,9.12a2.82,2.82,0,0,0,1-2.28,2.93,2.93,0,0,0-1-2.36,4,4,0,0,0-2.71-.86H63.73v6.3h4.72A4,4,0,0,0,71.11,24.81Z"/><path class="cls-1" d="M92.64,29.43l-5.16-9.11H85.27v9.11H80.58V6.05h8.77A10.25,10.25,0,0,1,94,7a6.68,6.68,0,0,1,2.86,2.58,7,7,0,0,1,1,3.63A6.75,6.75,0,0,1,92.47,20l5.59,9.48ZM85.27,16.8h3.92A3.91,3.91,0,0,0,92,15.88,3.42,3.42,0,0,0,93,13.32a3.25,3.25,0,0,0-.94-2.5,4,4,0,0,0-2.84-.89H85.27Z"/><path class="cls-1" d="M106.74,6.05V29.43h-4.69V6.05Z"/><path class="cls-1" d="M115,28.83a7.31,7.31,0,0,1-3.1-2.42,6.37,6.37,0,0,1-1.17-3.71h5a3.16,3.16,0,0,0,1,2.27,3.61,3.61,0,0,0,2.53.84,3.88,3.88,0,0,0,2.58-.79,2.57,2.57,0,0,0,.94-2.06,2.37,2.37,0,0,0-.64-1.7,4.48,4.48,0,0,0-1.59-1.06,25.87,25.87,0,0,0-2.63-.85A27.83,27.83,0,0,1,114.3,18a6.43,6.43,0,0,1-2.45-2,5.66,5.66,0,0,1-1-3.54,6.36,6.36,0,0,1,1-3.62,6.65,6.65,0,0,1,2.91-2.36,10.56,10.56,0,0,1,4.29-.82A9.33,9.33,0,0,1,125,7.47a6.53,6.53,0,0,1,2.5,4.91h-5.16a2.71,2.71,0,0,0-1-2,3.85,3.85,0,0,0-2.52-.78,3.26,3.26,0,0,0-2.2.7,2.53,2.53,0,0,0-.82,2,2.12,2.12,0,0,0,.62,1.56,4.68,4.68,0,0,0,1.54,1c.61.25,1.48.55,2.6.88a28.63,28.63,0,0,1,3.72,1.34,6.7,6.7,0,0,1,2.47,2,5.56,5.56,0,0,1,1,3.52,6.64,6.64,0,0,1-1,3.49,6.85,6.85,0,0,1-2.85,2.56,9.64,9.64,0,0,1-4.45.95A11.11,11.11,0,0,1,115,28.83Z"/><path class="cls-1" d="M148.28,19.41a5.77,5.77,0,0,1,1.28,3.69,6,6,0,0,1-.92,3.3A6.22,6.22,0,0,1,146,28.63a9.83,9.83,0,0,1-4.12.8H131.77V6.05h9.65a9.9,9.9,0,0,1,4.1.77A5.77,5.77,0,0,1,148.13,9a5.63,5.63,0,0,1,.89,3.12,5.28,5.28,0,0,1-1.09,3.41,5.77,5.77,0,0,1-2.9,2A5.23,5.23,0,0,1,148.28,19.41Zm-11.82-3.72h4.29a4,4,0,0,0,2.58-.75,2.65,2.65,0,0,0,.9-2.16,2.72,2.72,0,0,0-.9-2.18,3.91,3.91,0,0,0-2.58-.77h-4.29Zm7.38,9.12a2.82,2.82,0,0,0,1-2.28,2.93,2.93,0,0,0-1-2.36,4,4,0,0,0-2.71-.86h-4.62v6.3h4.72A4,4,0,0,0,143.84,24.81Z"/><path class="cls-1" d="M167.65,25h-9.32l-1.54,4.46h-4.92L160.28,6h5.46l8.41,23.42h-5Zm-1.28-3.75L163,11.44l-3.38,9.78Z"/><path class="cls-1" d="M197.3,29.43h-4.69L182,13.38v16h-4.7V6H182l10.62,16.08V6h4.69Z"/><polygon class="cls-1" points="84.55 43.07 88.33 43.07 86.45 37.69 84.55 43.07"/><path class="cls-1" d="M188.31,37.44a4.28,4.28,0,0,0-4.09,0,3.6,3.6,0,0,0-1.41,1.48,4.76,4.76,0,0,0-.51,2.25,4.83,4.83,0,0,0,.51,2.26,3.69,3.69,0,0,0,1.41,1.49,4.21,4.21,0,0,0,4.09,0,3.69,3.69,0,0,0,1.41-1.49,4.83,4.83,0,0,0,.51-2.26,4.76,4.76,0,0,0-.51-2.25A3.6,3.6,0,0,0,188.31,37.44Z"/><path class="cls-1" d="M71.23,39.85a1.7,1.7,0,0,0,0-2.45A2.18,2.18,0,0,0,69.77,37H67.42v3.31h2.35A2.29,2.29,0,0,0,71.23,39.85Z"/><path class="cls-1" d="M59,32.41V49.73H214.39V32.41ZM73.49,45.46a3,3,0,0,1-1.32,1.11,4.73,4.73,0,0,1-2,.41H65.53V35.41h4.41a4.68,4.68,0,0,1,2,.4,2.91,2.91,0,0,1,1.28,1.07,2.72,2.72,0,0,1,.43,1.51,2.54,2.54,0,0,1-.53,1.66,3,3,0,0,1-1.43,1,2.52,2.52,0,0,1,1.58,1A2.9,2.9,0,0,1,74,43.87,2.87,2.87,0,0,1,73.49,45.46ZM89.69,47l-.83-2.36H84L83.18,47h-2l4.15-11.59h2.2L91.69,47Zm18.84-2.68a5,5,0,0,1-2.15,2,7.22,7.22,0,0,1-3.24.69H99.36V35.41h3.78a7,7,0,0,1,3.24.71,5.08,5.08,0,0,1,2.15,2,6.15,6.15,0,0,1,.75,3.09A6,6,0,0,1,108.53,44.3ZM129.22,47h-1.9V39.05L123.79,47h-1.31l-3.55-7.93V47H117V35.41h2l4.06,9.07,4-9.07h2Zm10.27,0h-1.9V35.41h1.9Zm17.87,0h-1.9l-5.71-8.64V47h-1.9V35.39h1.9L155.46,44V35.39h1.9ZM173.2,37h-3.08V47h-1.89V37h-3.1V35.41h8.07Zm18.19,7.26a5.52,5.52,0,0,1-2.14,2.12,6.22,6.22,0,0,1-6,0,5.59,5.59,0,0,1-2.14-2.12,6.28,6.28,0,0,1,0-6.1,5.54,5.54,0,0,1,2.14-2.1,6.22,6.22,0,0,1,6,0,5.47,5.47,0,0,1,2.14,2.1,6.28,6.28,0,0,1,0,6.1Zm18,2.76h-1.9l-5.71-8.64V47h-1.9V35.39h1.9L207.52,44V35.39h1.9Z"/><path class="cls-1" d="M103.14,37h-1.88v8.47h1.88a4.14,4.14,0,0,0,3.11-1.1,4.22,4.22,0,0,0,1.09-3.09,4.37,4.37,0,0,0-1.09-3.15A4.08,4.08,0,0,0,103.14,37Z"/><path class="cls-1" d="M69.92,41.82h-2.5v3.61H70A2.25,2.25,0,0,0,71.5,45a1.62,1.62,0,0,0,.55-1.3,1.67,1.67,0,0,0-.58-1.35A2.31,2.31,0,0,0,69.92,41.82Z"/><circle class="cls-2" cx="28.25" cy="20.96" r="11.32"/><path class="cls-2" d="M19.83,10.61a.51.51,0,0,0,.41-.09A13,13,0,0,1,22,9.41a12.21,12.21,0,0,1,1.63-.72A.5.5,0,0,0,23.9,8a12.67,12.67,0,0,0-7.78-6,.5.5,0,0,0-.32,0A25.83,25.83,0,0,0,6.87,8.27a.5.5,0,0,0,.37.83,54.74,54.74,0,0,1,6.36.38A54.29,54.29,0,0,1,19.83,10.61Z"/><path class="cls-2" d="M.37,30.17a.5.5,0,0,0,.88.23A31.6,31.6,0,0,1,14.65,21a.5.5,0,0,0,.32-.45,13.43,13.43,0,0,1,.45-2.94,14.27,14.27,0,0,1,.83-2.22.49.49,0,0,0-.36-.71,39,39,0,0,0-7.11-.55,37,37,0,0,0-6,.57.48.48,0,0,0-.37.28,26,26,0,0,0-2,15.21Z"/><path class="cls-2" d="M15.7,26.76a.66.66,0,0,1,.72.35l.16.29c.17.32.36.62.54.9a.67.67,0,0,1,.1.44c-.36,3.46-.64,7.18-.76,11.12-.1,3.13-.1,6.13,0,9a.67.67,0,0,1-.93.63,26.44,26.44,0,0,1-6.06-3.71,26.12,26.12,0,0,1-6.09-7.22.48.48,0,0,1,0-.39,16.73,16.73,0,0,1,5.84-8.43A16.33,16.33,0,0,1,15.7,26.76Z"/><path class="cls-2" d="M22.83,33.78a.51.51,0,0,1,.65-.41,16.53,16.53,0,0,0,5.43.84.51.51,0,0,1,.45.26,42,42,0,0,0,4.77,7,42.53,42.53,0,0,0,5.4,5.38.5.5,0,0,1-.05.81,25.67,25.67,0,0,1-14.3,3.91.49.49,0,0,1-.46-.32,34.89,34.89,0,0,1-2-8.1A35.3,35.3,0,0,1,22.83,33.78Z"/><path class="cls-2" d="M45.1,42.45a.51.51,0,0,0,.53-.16,25.91,25.91,0,0,0,3.21-4.88,26.33,26.33,0,0,0,2-5.58.49.49,0,0,0-.54-.61,29.68,29.68,0,0,1-6.39,0A29,29,0,0,1,38.25,30a.5.5,0,0,0-.52.13,13.15,13.15,0,0,1-1.61,1.46c-.29.22-.58.42-.85.6a.48.48,0,0,0-.2.58,15.25,15.25,0,0,0,10,9.72Z"/><path class="cls-2" d="M41.29,23.05l8-6.34a.5.5,0,0,1,.79.21,26.64,26.64,0,0,1,1.23,4.73,25.14,25.14,0,0,1,.33,4.26.5.5,0,0,1-.47.5,29.24,29.24,0,0,1-5.21-.22,27.47,27.47,0,0,1-4.73-1.05.49.49,0,0,1-.34-.6c0-.14.08-.28.11-.43s.12-.51.16-.75A.5.5,0,0,1,41.29,23.05Z"/><path class="cls-2" d="M25.79,0a.5.5,0,0,0-.42.76,28.69,28.69,0,0,1,1.65,3,27,27,0,0,1,1.46,3.79.49.49,0,0,0,.45.35,13.31,13.31,0,0,1,4.64,1.15.49.49,0,0,0,.69-.34,11.72,11.72,0,0,0,.27-4.21,12,12,0,0,0-.8-3.09.51.51,0,0,0-.32-.29A26.89,26.89,0,0,0,29.19.22,26.56,26.56,0,0,0,25.79,0Z"/><path class="cls-2" d="M38.9,13.5a.5.5,0,0,1,0-.46,17,17,0,0,0,1-4.31,17.72,17.72,0,0,0,0-3.6.5.5,0,0,1,.78-.47A25.87,25.87,0,0,1,43.67,7.2,24.93,24.93,0,0,1,46,9.76a.45.45,0,0,1,.08.46,12.76,12.76,0,0,1-1.84,3.6,13.19,13.19,0,0,1-3,2.95.5.5,0,0,1-.76-.22,15.14,15.14,0,0,0-.66-1.48A13,13,0,0,0,38.9,13.5Z"/></g></g></svg>