<svg xmlns="http://www.w3.org/2000/svg" viewBox="0 0 51.59 51.59"><defs><style>.cls-1{fill:#fff;}</style></defs><g id="Layer_2" data-name="Layer 2"><g id="Layer_1-2" data-name="Layer 1"><circle class="cls-1" cx="28.25" cy="20.96" r="11.32"/><path class="cls-1" d="M19.83,10.61a.51.51,0,0,0,.41-.09A13,13,0,0,1,22,9.41a12.21,12.21,0,0,1,1.63-.72A.5.5,0,0,0,23.9,8a12.67,12.67,0,0,0-7.78-6,.5.5,0,0,0-.32,0A25.83,25.83,0,0,0,6.87,8.27a.5.5,0,0,0,.37.83,54.74,54.74,0,0,1,6.36.38A54.29,54.29,0,0,1,19.83,10.61Z"/><path class="cls-1" d="M.37,30.17a.5.5,0,0,0,.88.23A31.6,31.6,0,0,1,14.65,21a.5.5,0,0,0,.32-.45,13.43,13.43,0,0,1,.45-2.94,14.27,14.27,0,0,1,.83-2.22.49.49,0,0,0-.36-.71,39,39,0,0,0-7.11-.55,37,37,0,0,0-6,.57.48.48,0,0,0-.37.28,26,26,0,0,0-2,15.21Z"/><path class="cls-1" d="M15.7,26.76a.66.66,0,0,1,.72.35l.16.29c.17.32.36.62.54.9a.67.67,0,0,1,.1.44c-.36,3.46-.64,7.18-.76,11.12-.1,3.13-.1,6.13,0,9a.67.67,0,0,1-.93.63,26.44,26.44,0,0,1-6.06-3.71,26.12,26.12,0,0,1-6.09-7.22.48.48,0,0,1,0-.39,16.73,16.73,0,0,1,5.84-8.43A16.33,16.33,0,0,1,15.7,26.76Z"/><path class="cls-1" d="M22.83,33.78a.51.51,0,0,1,.65-.41,16.53,16.53,0,0,0,5.43.84.51.51,0,0,1,.45.26,42,42,0,0,0,4.77,7,42.53,42.53,0,0,0,5.4,5.38.5.5,0,0,1-.05.81,25.67,25.67,0,0,1-14.3,3.91.49.49,0,0,1-.46-.32,34.89,34.89,0,0,1-2-8.1A35.3,35.3,0,0,1,22.83,33.78Z"/><path class="cls-1" d="M45.1,42.45a.51.51,0,0,0,.53-.16,25.91,25.91,0,0,0,3.21-4.88,26.33,26.33,0,0,0,2-5.58.49.49,0,0,0-.54-.61,29.68,29.68,0,0,1-6.39,0A29,29,0,0,1,38.25,30a.5.5,0,0,0-.52.13,13.15,13.15,0,0,1-1.61,1.46c-.29.22-.58.42-.85.6a.48.48,0,0,0-.2.58,15.25,15.25,0,0,0,10,9.72Z"/><path class="cls-1" d="M41.29,23.05l8-6.34a.5.5,0,0,1,.79.21,26.64,26.64,0,0,1,1.23,4.73,25.14,25.14,0,0,1,.33,4.26.5.5,0,0,1-.47.5,29.24,29.24,0,0,1-5.21-.22,27.47,27.47,0,0,1-4.73-1.05.49.49,0,0,1-.34-.6c0-.14.08-.28.11-.43s.12-.51.16-.75A.5.5,0,0,1,41.29,23.05Z"/><path class="cls-1" d="M25.79,0a.5.5,0,0,0-.42.76,28.69,28.69,0,0,1,1.65,3,27,27,0,0,1,1.46,3.79.49.49,0,0,0,.45.35,13.31,13.31,0,0,1,4.64,1.15.49.49,0,0,0,.69-.34,11.72,11.72,0,0,0,.27-4.21,12,12,0,0,0-.8-3.09.51.51,0,0,0-.32-.29A26.89,26.89,0,0,0,29.19.22,26.56,26.56,0,0,0,25.79,0Z"/><path class="cls-1" d="M38.9,13.5a.5.5,0,0,1,0-.46,17,17,0,0,0,1-4.31,17.72,17.72,0,0,0,0-3.6.5.5,0,0,1,.78-.47A25.87,25.87,0,0,1,43.67,7.2,24.93,24.93,0,0,1,46,9.76a.45.45,0,0,1,.08.46,12.76,12.76,0,0,1-1.84,3.6,13.19,13.19,0,0,1-3,2.95.5.5,0,0,1-.76-.22,15.14,15.14,0,0,0-.66-1.48A13,13,0,0,0,38.9,13.5Z"/></g></g></svg>