<svg xmlns="http://www.w3.org/2000/svg" viewBox="0 0 215.43 51.59"><defs><style>.cls-1{fill:#d72027;}.cls-2{fill:#231f20;}</style></defs><g id="Layer_2" data-name="Layer 2"><g id="Layer_1-2" data-name="Layer 1"><path d="M76.58,17.13a5.76,5.76,0,0,1,1.28,3.68,6,6,0,0,1-.92,3.3,6.15,6.15,0,0,1-2.67,2.23,9.67,9.67,0,0,1-4.12.81H60.07V3.76h9.65a10.07,10.07,0,0,1,4.1.77,5.85,5.85,0,0,1,2.61,2.15,5.52,5.52,0,0,1,.89,3.11,5.33,5.33,0,0,1-1.09,3.42,5.84,5.84,0,0,1-2.89,1.94A5.26,5.26,0,0,1,76.58,17.13ZM64.76,13.41h4.29a4,4,0,0,0,2.58-.75,2.69,2.69,0,0,0,.9-2.17,2.7,2.7,0,0,0-.9-2.17,3.86,3.86,0,0,0-2.58-.77H64.76Zm7.39,9.11a2.82,2.82,0,0,0,.95-2.28,2.93,2.93,0,0,0-1-2.36A4.06,4.06,0,0,0,69.38,17H64.76v6.3h4.72A4,4,0,0,0,72.15,22.52Z"/><path d="M93.67,27.15,88.51,18H86.3v9.12H81.61V3.76h8.78a10.18,10.18,0,0,1,4.62,1A6.56,6.56,0,0,1,97.87,7.3a7,7,0,0,1,1,3.63,7,7,0,0,1-1.34,4.17,6.82,6.82,0,0,1-4,2.56l5.6,9.49ZM86.3,14.52h3.92a3.91,3.91,0,0,0,2.85-.93A3.43,3.43,0,0,0,94,11a3.28,3.28,0,0,0-.94-2.49,4,4,0,0,0-2.85-.89H86.3Z"/><path d="M107.77,3.76V27.15h-4.69V3.76Z"/><path d="M116.07,26.54a7.23,7.23,0,0,1-3.1-2.41,6.41,6.41,0,0,1-1.18-3.72h5a3.29,3.29,0,0,0,1,2.28,3.63,3.63,0,0,0,2.53.84,3.94,3.94,0,0,0,2.58-.79,2.54,2.54,0,0,0,.94-2.06,2.37,2.37,0,0,0-.64-1.71,4.25,4.25,0,0,0-1.59-1,24.71,24.71,0,0,0-2.63-.86,29.5,29.5,0,0,1-3.7-1.32,6.56,6.56,0,0,1-2.45-2,5.63,5.63,0,0,1-1-3.53,6.34,6.34,0,0,1,1-3.62,6.51,6.51,0,0,1,2.91-2.36,10.59,10.59,0,0,1,4.29-.82A9.27,9.27,0,0,1,126,5.19a6.51,6.51,0,0,1,2.5,4.9h-5.16a2.71,2.71,0,0,0-1-2,3.89,3.89,0,0,0-2.53-.79,3.27,3.27,0,0,0-2.2.71,2.56,2.56,0,0,0-.82,2,2.13,2.13,0,0,0,.62,1.56,4.77,4.77,0,0,0,1.54,1,25.84,25.84,0,0,0,2.6.89,27.22,27.22,0,0,1,3.72,1.34,6.81,6.81,0,0,1,2.48,2,5.6,5.6,0,0,1,1,3.52,6.59,6.59,0,0,1-1,3.48,6.85,6.85,0,0,1-2.84,2.57,9.81,9.81,0,0,1-4.46.95A11,11,0,0,1,116.07,26.54Z"/><path d="M149.32,17.13a5.81,5.81,0,0,1,1.27,3.68,6,6,0,0,1-.92,3.3A6.1,6.1,0,0,1,147,26.34a9.67,9.67,0,0,1-4.12.81H132.8V3.76h9.65a10.07,10.07,0,0,1,4.1.77,5.93,5.93,0,0,1,2.62,2.15,5.59,5.59,0,0,1,.88,3.11A5.33,5.33,0,0,1,149,13.21a5.84,5.84,0,0,1-2.89,1.94A5.31,5.31,0,0,1,149.32,17.13Zm-11.83-3.72h4.29a4,4,0,0,0,2.58-.75,2.69,2.69,0,0,0,.9-2.17,2.7,2.7,0,0,0-.9-2.17,3.86,3.86,0,0,0-2.58-.77h-4.29Zm7.39,9.11a2.82,2.82,0,0,0,1-2.28,2.93,2.93,0,0,0-1-2.36,4.06,4.06,0,0,0-2.72-.85h-4.62v6.3h4.72A4,4,0,0,0,144.88,22.52Z"/><path d="M168.68,22.69h-9.31l-1.55,4.46H152.9l8.41-23.42h5.46l8.41,23.42h-5Zm-1.27-3.75L164,9.16l-3.38,9.78Z"/><path d="M198.33,27.15h-4.69L183,11.1v16h-4.69V3.73H183l10.62,16.08V3.73h4.69Z"/><path class="cls-1" d="M104.17,34.67h-1.88v8.48h1.88a3.8,3.8,0,0,0,4.2-4.2,4.4,4.4,0,0,0-1.08-3.15A4.14,4.14,0,0,0,104.17,34.67Z"/><path class="cls-1" d="M72.26,37.56a1.48,1.48,0,0,0,.53-1.22,1.54,1.54,0,0,0-.53-1.23,2.21,2.21,0,0,0-1.46-.44H68.46V38H70.8A2.27,2.27,0,0,0,72.26,37.56Z"/><path class="cls-1" d="M71,39.53H68.46v3.62H71a2.3,2.3,0,0,0,1.52-.47,1.63,1.63,0,0,0,.55-1.3A1.71,1.71,0,0,0,72.5,40,2.31,2.31,0,0,0,71,39.53Z"/><polygon class="cls-1" points="85.58 40.78 89.36 40.78 87.48 35.41 85.58 40.78"/><path class="cls-1" d="M60.07,30.13V47.45H215.43V30.13Zm14.46,13a3.14,3.14,0,0,1-1.33,1.12,4.71,4.71,0,0,1-2,.41H66.56V33.12H71a4.8,4.8,0,0,1,2,.4,2.94,2.94,0,0,1,1.28,1.08,2.72,2.72,0,0,1,.44,1.5,2.56,2.56,0,0,1-.54,1.67,3.08,3.08,0,0,1-1.43,1,2.56,2.56,0,0,1,1.58,1,3,3,0,0,1,.2,3.44Zm16.2,1.53-.84-2.37H85.05l-.83,2.37h-2l4.14-11.59h2.2L92.72,44.7ZM109.56,42a5,5,0,0,1-2.15,2,7.09,7.09,0,0,1-3.24.7h-3.78V33.12h3.78a7.09,7.09,0,0,1,3.24.71,5.08,5.08,0,0,1,2.15,2,6.21,6.21,0,0,1,.76,3.09A6,6,0,0,1,109.56,42Zm20.69,2.68h-1.89V36.77l-3.53,7.93h-1.32L120,36.77V44.7h-1.9V33.12h2l4.07,9.08,4-9.08h2Zm10.27,0h-1.9V33.12h1.9Zm17.87,0H156.5l-5.71-8.65V44.7h-1.9V33.11h1.9l5.71,8.62V33.11h1.89Zm15.85-10h-3.08v10h-1.9v-10h-3.1V33.12h8.08Zm18.19,7.27a5.49,5.49,0,0,1-2.14,2.11,6,6,0,0,1-3,.76,5.92,5.92,0,0,1-3-.76,5.52,5.52,0,0,1-2.15-2.11,6.28,6.28,0,0,1,0-6.1,5.66,5.66,0,0,1,2.15-2.11,6,6,0,0,1,3-.76,6.1,6.1,0,0,1,3,.76,5.63,5.63,0,0,1,2.14,2.11,6.35,6.35,0,0,1,0,6.1Zm18,2.76h-1.9l-5.71-8.65V44.7h-1.9V33.11h1.9l5.71,8.62V33.11h1.9Z"/><path class="cls-1" d="M189.35,35.16a4.3,4.3,0,0,0-4.1,0,3.54,3.54,0,0,0-1.41,1.48,4.83,4.83,0,0,0-.5,2.24,4.92,4.92,0,0,0,.5,2.26,3.65,3.65,0,0,0,1.41,1.5,4.3,4.3,0,0,0,4.1,0,3.57,3.57,0,0,0,1.4-1.5,4.8,4.8,0,0,0,.51-2.26,4.72,4.72,0,0,0-.51-2.24A3.46,3.46,0,0,0,189.35,35.16Z"/><path class="cls-2" d="M206.55,7.55v5.86h7.87v3.72h-7.87v6.2h8.88v3.82H201.86V3.73h13.57V7.55Z"/><circle class="cls-1" cx="28.25" cy="20.96" r="11.32"/><path class="cls-1" d="M19.83,10.61a.51.51,0,0,0,.41-.09A13,13,0,0,1,22,9.41a12.21,12.21,0,0,1,1.63-.72A.5.5,0,0,0,23.9,8a12.67,12.67,0,0,0-7.78-6,.5.5,0,0,0-.32,0A25.83,25.83,0,0,0,6.87,8.27a.5.5,0,0,0,.37.83,54.74,54.74,0,0,1,6.36.38A54.29,54.29,0,0,1,19.83,10.61Z"/><path class="cls-1" d="M.37,30.17a.5.5,0,0,0,.88.23A31.6,31.6,0,0,1,14.65,21a.5.5,0,0,0,.32-.45,13.43,13.43,0,0,1,.45-2.94,14.27,14.27,0,0,1,.83-2.22.49.49,0,0,0-.36-.71,39,39,0,0,0-7.11-.55,37,37,0,0,0-6,.57.48.48,0,0,0-.37.28,26,26,0,0,0-2,15.21Z"/><path class="cls-1" d="M15.7,26.76a.66.66,0,0,1,.72.35l.16.29c.17.32.36.62.54.9a.67.67,0,0,1,.1.44c-.36,3.46-.64,7.18-.76,11.12-.1,3.13-.1,6.13,0,9a.67.67,0,0,1-.93.63,26.44,26.44,0,0,1-6.06-3.71,26.12,26.12,0,0,1-6.09-7.22.48.48,0,0,1,0-.39,16.73,16.73,0,0,1,5.84-8.43A16.33,16.33,0,0,1,15.7,26.76Z"/><path class="cls-1" d="M22.83,33.78a.51.51,0,0,1,.65-.41,16.53,16.53,0,0,0,5.43.84.51.51,0,0,1,.45.26,42,42,0,0,0,4.77,7,42.53,42.53,0,0,0,5.4,5.38.5.5,0,0,1-.05.81,25.67,25.67,0,0,1-14.3,3.91.49.49,0,0,1-.46-.32,34.89,34.89,0,0,1-2-8.1A35.3,35.3,0,0,1,22.83,33.78Z"/><path class="cls-1" d="M45.1,42.45a.51.51,0,0,0,.53-.16,25.91,25.91,0,0,0,3.21-4.88,26.33,26.33,0,0,0,2-5.58.49.49,0,0,0-.54-.61,29.68,29.68,0,0,1-6.39,0A29,29,0,0,1,38.25,30a.5.5,0,0,0-.52.13,13.15,13.15,0,0,1-1.61,1.46c-.29.22-.58.42-.85.6a.48.48,0,0,0-.2.58,15.25,15.25,0,0,0,10,9.72Z"/><path class="cls-1" d="M41.29,23.05l8-6.34a.5.5,0,0,1,.79.21,26.64,26.64,0,0,1,1.23,4.73,25.14,25.14,0,0,1,.33,4.26.5.5,0,0,1-.47.5,29.24,29.24,0,0,1-5.21-.22,27.47,27.47,0,0,1-4.73-1.05.49.49,0,0,1-.34-.6c0-.14.08-.28.11-.43s.12-.51.16-.75A.5.5,0,0,1,41.29,23.05Z"/><path class="cls-1" d="M25.79,0a.5.5,0,0,0-.42.76,28.69,28.69,0,0,1,1.65,3,27,27,0,0,1,1.46,3.79.49.49,0,0,0,.45.35,13.31,13.31,0,0,1,4.64,1.15.49.49,0,0,0,.69-.34,11.72,11.72,0,0,0,.27-4.21,12,12,0,0,0-.8-3.09.51.51,0,0,0-.32-.29A26.89,26.89,0,0,0,29.19.22,26.56,26.56,0,0,0,25.79,0Z"/><path class="cls-1" d="M38.9,13.5a.5.5,0,0,1,0-.46,17,17,0,0,0,1-4.31,17.72,17.72,0,0,0,0-3.6.5.5,0,0,1,.78-.47A25.87,25.87,0,0,1,43.67,7.2,24.93,24.93,0,0,1,46,9.76a.45.45,0,0,1,.08.46,12.76,12.76,0,0,1-1.84,3.6,13.19,13.19,0,0,1-3,2.95.5.5,0,0,1-.76-.22,15.14,15.14,0,0,0-.66-1.48A13,13,0,0,0,38.9,13.5Z"/></g></g></svg>