<svg xmlns="http://www.w3.org/2000/svg" viewBox="0 0 215.54 51.59"><defs><style>.cls-1{fill:#fff;}</style></defs><g id="Layer_2" data-name="Layer 2"><g id="Layer_1-2" data-name="Layer 1"><path class="cls-1" d="M206.66,8.13V14h7.88v3.72h-7.88v6.2h8.88v3.82H202V4.31h13.56V8.13Z"/><path class="cls-1" d="M76.7,17.71A5.77,5.77,0,0,1,78,21.4a5.9,5.9,0,0,1-.93,3.3,6,6,0,0,1-2.66,2.22,9.67,9.67,0,0,1-4.12.81H60.19V4.34h9.64a10.08,10.08,0,0,1,4.11.77,5.85,5.85,0,0,1,2.61,2.15,5.6,5.6,0,0,1,.89,3.11,5.29,5.29,0,0,1-1.09,3.42,5.8,5.8,0,0,1-2.9,1.94A5.29,5.29,0,0,1,76.7,17.71ZM64.88,14h4.28a3.93,3.93,0,0,0,2.58-.75,2.63,2.63,0,0,0,.91-2.16,2.68,2.68,0,0,0-.91-2.18,3.88,3.88,0,0,0-2.58-.77H64.88Zm7.38,9.11a2.79,2.79,0,0,0,1-2.27,3,3,0,0,0-1-2.37,4.09,4.09,0,0,0-2.71-.85H64.88v6.3H69.6A4,4,0,0,0,72.26,23.1Z"/><path class="cls-1" d="M93.79,27.73l-5.16-9.11H86.42v9.11H81.73V4.34H90.5a10.25,10.25,0,0,1,4.63,1A6.68,6.68,0,0,1,98,7.88a7,7,0,0,1,1,3.63,6.77,6.77,0,0,1-5.33,6.74l5.6,9.48ZM86.42,15.1h3.92a3.91,3.91,0,0,0,2.84-.92,3.43,3.43,0,0,0,.94-2.57,3.24,3.24,0,0,0-.94-2.49,4,4,0,0,0-2.84-.89H86.42Z"/><path class="cls-1" d="M107.89,4.34V27.73H103.2V4.34Z"/><path class="cls-1" d="M116.18,27.12a7.21,7.21,0,0,1-3.1-2.41A6.4,6.4,0,0,1,111.91,21h5a3.2,3.2,0,0,0,1,2.28,3.61,3.61,0,0,0,2.53.84,3.88,3.88,0,0,0,2.58-.79,2.57,2.57,0,0,0,.94-2.06,2.41,2.41,0,0,0-.64-1.71,4.6,4.6,0,0,0-1.59-1.05c-.64-.26-1.52-.54-2.63-.86a26.61,26.61,0,0,1-3.7-1.32,6.37,6.37,0,0,1-2.45-2,5.63,5.63,0,0,1-1-3.53,6.36,6.36,0,0,1,1-3.62,6.58,6.58,0,0,1,2.91-2.36A10.56,10.56,0,0,1,120.22,4a9.33,9.33,0,0,1,5.88,1.76,6.53,6.53,0,0,1,2.5,4.91h-5.16a2.71,2.71,0,0,0-1-2,3.86,3.86,0,0,0-2.52-.79,3.27,3.27,0,0,0-2.2.71,2.53,2.53,0,0,0-.82,2,2.12,2.12,0,0,0,.62,1.56,4.66,4.66,0,0,0,1.54,1,25,25,0,0,0,2.6.89,28.63,28.63,0,0,1,3.72,1.34,6.81,6.81,0,0,1,2.48,2,5.62,5.62,0,0,1,1,3.52,6.58,6.58,0,0,1-1,3.48A6.81,6.81,0,0,1,125,27a9.77,9.77,0,0,1-4.45.95A11.11,11.11,0,0,1,116.18,27.12Z"/><path class="cls-1" d="M149.43,17.71a5.77,5.77,0,0,1,1.28,3.69,6,6,0,0,1-.92,3.3,6.13,6.13,0,0,1-2.67,2.22,9.67,9.67,0,0,1-4.12.81H132.92V4.34h9.65a10.07,10.07,0,0,1,4.1.77,5.85,5.85,0,0,1,2.61,2.15,5.6,5.6,0,0,1,.89,3.11,5.29,5.29,0,0,1-1.09,3.42,5.76,5.76,0,0,1-2.9,1.94A5.29,5.29,0,0,1,149.43,17.71ZM137.61,14h4.29a4,4,0,0,0,2.58-.75,2.65,2.65,0,0,0,.9-2.16,2.71,2.71,0,0,0-.9-2.18,3.91,3.91,0,0,0-2.58-.77h-4.29ZM145,23.1a2.79,2.79,0,0,0,1-2.27,3,3,0,0,0-1-2.37,4.09,4.09,0,0,0-2.71-.85h-4.62v6.3h4.72A4,4,0,0,0,145,23.1Z"/><path class="cls-1" d="M168.8,23.27h-9.32l-1.54,4.46H153l8.41-23.42h5.46l8.41,23.42h-5Zm-1.28-3.75-3.38-9.78-3.38,9.78Z"/><path class="cls-1" d="M198.45,27.73h-4.69l-10.62-16V27.73h-4.7V4.31h4.7l10.62,16.08V4.31h4.69Z"/><path class="cls-1" d="M189.46,35.74a4.28,4.28,0,0,0-4.09,0A3.6,3.6,0,0,0,184,37.22a4.73,4.73,0,0,0-.51,2.25,4.78,4.78,0,0,0,.51,2.25,3.65,3.65,0,0,0,1.41,1.5,4.21,4.21,0,0,0,4.09,0,3.65,3.65,0,0,0,1.41-1.5,4.78,4.78,0,0,0,.51-2.25,4.73,4.73,0,0,0-.51-2.25A3.6,3.6,0,0,0,189.46,35.74Z"/><path class="cls-1" d="M60.19,30.71V48H215.54V30.71Zm14.45,13a3,3,0,0,1-1.32,1.12,4.71,4.71,0,0,1-2,.41H66.68V33.71h4.41a4.68,4.68,0,0,1,2,.4,2.91,2.91,0,0,1,1.28,1.07,2.72,2.72,0,0,1,.43,1.51,2.54,2.54,0,0,1-.53,1.66,3,3,0,0,1-1.43,1,2.58,2.58,0,0,1,1.58,1,2.89,2.89,0,0,1,.65,1.84A2.82,2.82,0,0,1,74.64,43.75Zm16.2,1.53L90,42.91H85.17l-.84,2.37h-2L86.5,33.69h2.2l4.14,11.59Zm18.84-2.68a5.11,5.11,0,0,1-2.15,2,7.22,7.22,0,0,1-3.24.69h-3.78V33.71h3.78a7.09,7.09,0,0,1,3.24.7,5.16,5.16,0,0,1,2.15,2,6.14,6.14,0,0,1,.75,3.08A6,6,0,0,1,109.68,42.6Zm20.69,2.68h-1.9V37.35l-3.53,7.93h-1.31l-3.55-7.93v7.93h-1.9V33.71h2l4.06,9.07,4-9.07h2Zm10.27,0h-1.9V33.71h1.9Zm17.87,0h-1.9l-5.71-8.64v8.64H149V33.69h1.9l5.71,8.62V33.69h1.9Zm15.84-10h-3.08v10h-1.89v-10h-3.1V33.71h8.07Zm18.19,7.26a5.56,5.56,0,0,1-2.13,2.12,6.32,6.32,0,0,1-6,0,5.59,5.59,0,0,1-2.14-2.12,6.28,6.28,0,0,1,0-6.1,5.63,5.63,0,0,1,2.14-2.11,6.32,6.32,0,0,1,6,0,5.6,5.6,0,0,1,2.13,2.11,6.28,6.28,0,0,1,0,6.1Zm18,2.76h-1.9L203,36.64v8.64h-1.9V33.69H203l5.71,8.62V33.69h1.9Z"/><polygon class="cls-1" points="85.7 41.37 89.48 41.37 87.6 35.99 85.7 41.37"/><path class="cls-1" d="M104.29,35.26h-1.88v8.47h1.88a4.18,4.18,0,0,0,3.11-1.1,4.23,4.23,0,0,0,1.09-3.1,4.36,4.36,0,0,0-1.09-3.14A4.08,4.08,0,0,0,104.29,35.26Z"/><path class="cls-1" d="M71.07,40.12h-2.5v3.61h2.57a2.26,2.26,0,0,0,1.51-.47A1.59,1.59,0,0,0,73.2,42a1.67,1.67,0,0,0-.58-1.35A2.26,2.26,0,0,0,71.07,40.12Z"/><path class="cls-1" d="M72.38,38.14a1.47,1.47,0,0,0,.52-1.22,1.5,1.5,0,0,0-.52-1.22,2.18,2.18,0,0,0-1.46-.44H68.57v3.31h2.35A2.23,2.23,0,0,0,72.38,38.14Z"/><circle class="cls-1" cx="28.25" cy="20.96" r="11.32"/><path class="cls-1" d="M19.83,10.61a.51.51,0,0,0,.41-.09A13,13,0,0,1,22,9.41a12.21,12.21,0,0,1,1.63-.72A.5.5,0,0,0,23.9,8a12.67,12.67,0,0,0-7.78-6,.5.5,0,0,0-.32,0A25.83,25.83,0,0,0,6.87,8.27a.5.5,0,0,0,.37.83,54.74,54.74,0,0,1,6.36.38A54.29,54.29,0,0,1,19.83,10.61Z"/><path class="cls-1" d="M.37,30.17a.5.5,0,0,0,.88.23A31.6,31.6,0,0,1,14.65,21a.5.5,0,0,0,.32-.45,13.43,13.43,0,0,1,.45-2.94,14.27,14.27,0,0,1,.83-2.22.49.49,0,0,0-.36-.71,39,39,0,0,0-7.11-.55,37,37,0,0,0-6,.57.48.48,0,0,0-.37.28,26,26,0,0,0-2,15.21Z"/><path class="cls-1" d="M15.7,26.76a.66.66,0,0,1,.72.35l.16.29c.17.32.36.62.54.9a.67.67,0,0,1,.1.44c-.36,3.46-.64,7.18-.76,11.12-.1,3.13-.1,6.13,0,9a.67.67,0,0,1-.93.63,26.44,26.44,0,0,1-6.06-3.71,26.12,26.12,0,0,1-6.09-7.22.48.48,0,0,1,0-.39,16.73,16.73,0,0,1,5.84-8.43A16.33,16.33,0,0,1,15.7,26.76Z"/><path class="cls-1" d="M22.83,33.78a.51.51,0,0,1,.65-.41,16.53,16.53,0,0,0,5.43.84.51.51,0,0,1,.45.26,42,42,0,0,0,4.77,7,42.53,42.53,0,0,0,5.4,5.38.5.5,0,0,1-.05.81,25.67,25.67,0,0,1-14.3,3.91.49.49,0,0,1-.46-.32,34.89,34.89,0,0,1-2-8.1A35.3,35.3,0,0,1,22.83,33.78Z"/><path class="cls-1" d="M45.1,42.45a.51.51,0,0,0,.53-.16,25.91,25.91,0,0,0,3.21-4.88,26.33,26.33,0,0,0,2-5.58.49.49,0,0,0-.54-.61,29.68,29.68,0,0,1-6.39,0A29,29,0,0,1,38.25,30a.5.5,0,0,0-.52.13,13.15,13.15,0,0,1-1.61,1.46c-.29.22-.58.42-.85.6a.48.48,0,0,0-.2.58,15.25,15.25,0,0,0,10,9.72Z"/><path class="cls-1" d="M41.29,23.05l8-6.34a.5.5,0,0,1,.79.21,26.64,26.64,0,0,1,1.23,4.73,25.14,25.14,0,0,1,.33,4.26.5.5,0,0,1-.47.5,29.24,29.24,0,0,1-5.21-.22,27.47,27.47,0,0,1-4.73-1.05.49.49,0,0,1-.34-.6c0-.14.08-.28.11-.43s.12-.51.16-.75A.5.5,0,0,1,41.29,23.05Z"/><path class="cls-1" d="M25.79,0a.5.5,0,0,0-.42.76,28.69,28.69,0,0,1,1.65,3,27,27,0,0,1,1.46,3.79.49.49,0,0,0,.45.35,13.31,13.31,0,0,1,4.64,1.15.49.49,0,0,0,.69-.34,11.72,11.72,0,0,0,.27-4.21,12,12,0,0,0-.8-3.09.51.51,0,0,0-.32-.29A26.89,26.89,0,0,0,29.19.22,26.56,26.56,0,0,0,25.79,0Z"/><path class="cls-1" d="M38.9,13.5a.5.5,0,0,1,0-.46,17,17,0,0,0,1-4.31,17.72,17.72,0,0,0,0-3.6.5.5,0,0,1,.78-.47A25.87,25.87,0,0,1,43.67,7.2,24.93,24.93,0,0,1,46,9.76a.45.45,0,0,1,.08.46,12.76,12.76,0,0,1-1.84,3.6,13.19,13.19,0,0,1-3,2.95.5.5,0,0,1-.76-.22,15.14,15.14,0,0,0-.66-1.48A13,13,0,0,0,38.9,13.5Z"/></g></g></svg>